<?xml version="1.0" encoding="UTF-8" standalone="no"?>
<!-- Created with Inkscape (http://www.inkscape.org/) -->

<svg
   xmlns:dc="http://purl.org/dc/elements/1.1/"
   xmlns:cc="http://creativecommons.org/ns#"
   xmlns:rdf="http://www.w3.org/1999/02/22-rdf-syntax-ns#"
   xmlns:svg="http://www.w3.org/2000/svg"
   xmlns="http://www.w3.org/2000/svg"
   xmlns:sodipodi="http://sodipodi.sourceforge.net/DTD/sodipodi-0.dtd"
   xmlns:inkscape="http://www.inkscape.org/namespaces/inkscape"
   width="1557.6553"
   height="1343.5029"
   id="svg2"
   version="1.1"
   inkscape:version="0.48.3.1 r9886"
   sodipodi:docname="beams-logo-cyan-on-black.svg"
   inkscape:export-filename="/home/hindle1/Desktop/beams-logo-cyan-on-black.3dpi.png"
   inkscape:export-xdpi="3.0145078"
   inkscape:export-ydpi="3.0145078">
  <defs
     id="defs4" />
  <sodipodi:namedview
     id="base"
     pagecolor="#ffffff"
     bordercolor="#666666"
     borderopacity="1.0"
     inkscape:pageopacity="0.0"
     inkscape:pageshadow="2"
     inkscape:zoom="0.49497475"
     inkscape:cx="1464.3918"
     inkscape:cy="615.16521"
     inkscape:document-units="px"
     inkscape:current-layer="layer1"
     showgrid="false"
     showguides="true"
     inkscape:guide-bbox="true"
     inkscape:window-width="1855"
     inkscape:window-height="1176"
     inkscape:window-x="65"
     inkscape:window-y="24"
     inkscape:window-maximized="1"
     fit-margin-top="0"
     fit-margin-left="0"
     fit-margin-right="0"
     fit-margin-bottom="0" />
  <metadata
     id="metadata7">
    <rdf:RDF>
      <cc:Work
         rdf:about="">
        <dc:format>image/svg+xml</dc:format>
        <dc:type
           rdf:resource="http://purl.org/dc/dcmitype/StillImage" />
        <dc:title></dc:title>
      </cc:Work>
    </rdf:RDF>
  </metadata>
  <g
     inkscape:label="Layer 1"
     inkscape:groupmode="layer"
     id="layer1"
     transform="translate(30.304575,-90.696943)">
    <rect
       style="fill:#000000;fill-opacity:1;stroke:none"
       id="rect3625"
       width="1652.6095"
       height="1442.4978"
       x="-48.48732"
       y="-36.365437"
       transform="translate(-30.304575,90.696943)" />
    <path
       style="fill:#badad9;fill-opacity:1;stroke:#badad9;stroke-opacity:1"
       d="M 16.15625 20.1875 L 16.15625 43.59375 L 162.625 385.375 L 16.15625 129.75 L 16.15625 283.4375 L 159.59375 389.40625 L 16.15625 308.3125 L 16.15625 379.90625 L 163.125 395.96875 L 16.15625 395.96875 L 16.15625 1331.375 L 155.625 1331.375 L 164.53125 414.65625 L 163.65625 406.09375 L 164.5625 412.6875 L 164.65625 403.0625 L 165 415.78125 L 220.65625 821.1875 L 257.84375 774.375 L 237.96875 694.5 L 207.09375 719.46875 L 233.75 677.53125 L 164.65625 400.03125 L 431.875 1331.375 L 804.09375 1331.375 L 804.09375 477.21875 L 179.4375 402.15625 L 804.09375 405.53125 L 804.09375 129.40625 C 717.56905 165.45819 176.28125 397 176.28125 397 L 804.09375 39.09375 L 804.09375 20.1875 L 453.84375 20.1875 L 176.78125 390.4375 C 179.28617 386.93061 388.79599 26.082498 392.21875 20.1875 L 16.15625 20.1875 z M 165.09375 419.9375 L 172 686.625 L 195.65625 714.40625 L 165.09375 419.9375 z M 605.84375 510.125 C 686.0407 510.125 751.0625 575.14678 751.0625 655.34375 C 751.0625 735.5407 686.0407 800.53125 605.84375 800.53125 C 525.64679 800.53125 460.625 735.5407 460.625 655.34375 C 460.625 575.14678 525.64679 510.125 605.84375 510.125 z M 172.1875 693.84375 L 174.65625 788.96875 C 180.36348 794.1064 201.6625 816.65778 206.84375 822.15625 L 195.84375 716.1875 L 172.1875 693.84375 z M 263.15625 795.65625 L 220.75 821.75 L 236.40625 935.75 C 251.63526 918.10814 274.33567 891.98964 284.46875 881.21875 L 263.15625 795.65625 z M 174.9375 800.53125 L 177.5 899.75 C 184.65878 907.45262 208.25363 933.1585 219.65625 945.59375 L 206.9375 823 L 174.9375 800.53125 z M 291.09375 907.90625 L 237.34375 942.71875 L 257 1085.8125 L 317.25 1012.9062 L 291.09375 907.90625 z M 177.9375 916.75 L 180.78125 1026.6562 L 234.90625 1092.5938 L 220 948.90625 L 177.9375 916.75 z M 325.59375 1046.4062 L 257.71875 1091.0938 L 278.28125 1240.7812 C 291.72091 1224.8 336.27368 1171.9075 352.375 1153.9688 L 325.59375 1046.4062 z M 181.40625 1050.625 L 183.96875 1149.5625 L 248.90625 1227.4688 L 235.46875 1097.9375 L 181.40625 1050.625 z M 184.875 1183.4688 L 188.46875 1322.1562 L 195.875 1331.375 L 259.6875 1331.375 L 250.15625 1239.5625 L 184.875 1183.4688 z M 361.15625 1189.3125 L 278.71875 1243.9375 L 290.71875 1331.375 L 360.9375 1331.375 C 369.35448 1321.7513 379.33304 1310.3595 388.65625 1299.7188 L 361.15625 1189.3125 z "
       transform="translate(-30.304575,90.696943)"
       id="rect3050" />
    <text
       xml:space="preserve"
       style="font-size:144px;font-style:normal;font-weight:normal;line-height:125%;letter-spacing:0px;word-spacing:0px;fill:#badad9;fill-opacity:1;stroke:#badad9;font-family:Sans;stroke-opacity:1"
       x="801.05103"
       y="216.96606"
       id="text3012"
       sodipodi:linespacing="125%"><tspan
         sodipodi:role="line"
         id="tspan3014"
         x="801.05103"
         y="216.96606"
         style="font-size:144px;font-style:normal;font-variant:normal;font-weight:normal;font-stretch:normal;font-family:Futura Lt BT;-inkscape-font-specification:Futura Lt BT;fill:#badad9;stroke:#badad9;stroke-opacity:1;fill-opacity:1">BOREAL</tspan></text>
    <flowRoot
       xml:space="preserve"
       id="flowRoot3081"
       style="font-size:40px;font-style:normal;font-weight:normal;line-height:125%;letter-spacing:0px;word-spacing:0px;fill:#000000;fill-opacity:1;stroke:none;font-family:Sans"><flowRegion
         id="flowRegion3083"><rect
           id="rect3085"
           width="575.78693"
           height="292.94424"
           x="1074.8022"
           y="575.57019" /></flowRegion><flowPara
         id="flowPara3087" /></flowRoot>    <text
       xml:space="preserve"
       style="font-size:144px;font-style:normal;font-weight:normal;line-height:125%;letter-spacing:0px;word-spacing:0px;fill:#badad9;fill-opacity:1;stroke:#badad9;font-family:Sans;stroke-opacity:1"
       x="803.74768"
       y="393.3515"
       id="text3012-5"
       sodipodi:linespacing="125%"><tspan
         sodipodi:role="line"
         id="tspan3014-5"
         x="803.74768"
         y="393.3515"
         style="font-size:144px;font-style:normal;font-variant:normal;font-weight:normal;font-stretch:normal;font-family:Futura Lt BT;-inkscape-font-specification:Futura Lt BT;fill:#badad9;stroke:#badad9;stroke-opacity:1;fill-opacity:1">ELECTRO</tspan></text>
    <text
       xml:space="preserve"
       style="font-size:144px;font-style:normal;font-weight:normal;line-height:125%;letter-spacing:0px;word-spacing:0px;fill:#badad9;fill-opacity:1;stroke:#badad9;font-family:Sans;stroke-opacity:1"
       x="809.59283"
       y="569.75433"
       id="text3012-5-3"
       sodipodi:linespacing="125%"><tspan
         sodipodi:role="line"
         id="tspan3014-5-0"
         x="809.59283"
         y="569.75433"
         style="font-size:144px;font-style:normal;font-variant:normal;font-weight:normal;font-stretch:normal;font-family:Futura Lt BT;-inkscape-font-specification:Futura Lt BT;fill:#badad9;stroke:#badad9;stroke-opacity:1;fill-opacity:1">ACOUSTIC</tspan></text>
    <text
       xml:space="preserve"
       style="font-size:144px;font-style:normal;font-weight:normal;line-height:125%;letter-spacing:0px;word-spacing:0px;fill:#badad9;fill-opacity:1;stroke:#badad9;font-family:Sans;stroke-opacity:1"
       x="805.54614"
       y="742.86432"
       id="text3012-5-3-2"
       sodipodi:linespacing="125%"><tspan
         sodipodi:role="line"
         id="tspan3014-5-0-1"
         x="805.54614"
         y="742.86432"
         style="font-size:144px;font-style:normal;font-variant:normal;font-weight:normal;font-stretch:normal;font-family:Futura Lt BT;-inkscape-font-specification:Futura Lt BT;fill:#badad9;stroke:#badad9;stroke-opacity:1;fill-opacity:1">MUSIC</tspan></text>
    <text
       xml:space="preserve"
       style="font-size:144px;font-style:normal;font-weight:normal;line-height:125%;letter-spacing:0px;word-spacing:0px;fill:#badad9;fill-opacity:1;stroke:#badad9;font-family:Sans;stroke-opacity:1"
       x="807.45685"
       y="919.1488"
       id="text3012-5-3-2-5"
       sodipodi:linespacing="125%"><tspan
         sodipodi:role="line"
         id="tspan3014-5-0-1-3"
         x="807.45685"
         y="919.1488"
         style="font-size:144px;font-style:normal;font-variant:normal;font-weight:normal;font-stretch:normal;font-family:Futura Lt BT;-inkscape-font-specification:Futura Lt BT;fill:#badad9;stroke:#badad9;stroke-opacity:1;fill-opacity:1">SOCIETY</tspan></text>
  </g>
</svg>
