<?xml version="1.0" encoding="UTF-8" standalone="no"?>
<!-- Created with Inkscape (http://www.inkscape.org/) -->

<svg
   xmlns:dc="http://purl.org/dc/elements/1.1/"
   xmlns:cc="http://creativecommons.org/ns#"
   xmlns:rdf="http://www.w3.org/1999/02/22-rdf-syntax-ns#"
   xmlns:svg="http://www.w3.org/2000/svg"
   xmlns="http://www.w3.org/2000/svg"
   version="1.2"
   width="1557.6553"
   height="1343.5029"
   id="svg2">
  <defs
     id="defs4" />
  <metadata
     id="metadata7">
    <rdf:RDF>
      <cc:Work
         rdf:about="">
        <dc:format>image/svg+xml</dc:format>
        <dc:type
           rdf:resource="http://purl.org/dc/dcmitype/StillImage" />
        <dc:title></dc:title>
      </cc:Work>
    </rdf:RDF>
  </metadata>
  <g
     transform="translate(30.304575,-90.696943)"
     id="layer1">
    <path
       d="m 16.15625,20.1875 0,23.40625 L 162.625,385.375 16.15625,129.75 l 0,153.6875 143.4375,105.96875 -143.4375,-81.09375 0,71.59375 146.96875,16.0625 -146.96875,0 0,935.40625 139.46875,0 8.90625,-916.71875 -0.875,-8.5625 0.90625,6.59375 0.0937,-9.625 0.34375,12.71875 55.65625,405.40625 37.1875,-46.8125 -19.875,-79.875 -30.875,24.96875 26.65625,-41.9375 -69.09375,-277.5 267.21875,931.34375 372.21875,0 0,-854.15625 -624.65625,-75.0625 624.65625,3.375 0,-276.125 C 717.56905,165.45819 176.28125,397 176.28125,397 l 627.8125,-357.90625 0,-18.90625 -350.25,0 -277.0625,370.25 c 2.50492,-3.50689 212.01474,-364.355002 215.4375,-370.25 l -376.0625,0 z m 148.9375,399.75 L 172,686.625 195.65625,714.40625 165.09375,419.9375 z m 440.75,90.1875 c 80.19695,0 145.21875,65.02178 145.21875,145.21875 0,80.19695 -65.0218,145.1875 -145.21875,145.1875 -80.19696,0 -145.21875,-64.99055 -145.21875,-145.1875 0,-80.19697 65.02179,-145.21875 145.21875,-145.21875 z m -433.65625,183.71875 2.46875,95.125 c 5.70723,5.13765 27.00625,27.68903 32.1875,33.1875 l -11,-105.96875 -23.65625,-22.34375 z M 263.15625,795.65625 220.75,821.75 l 15.65625,114 c 15.22901,-17.64186 37.92942,-43.76036 48.0625,-54.53125 l -21.3125,-85.5625 z m -88.21875,4.875 L 177.5,899.75 c 7.15878,7.70262 30.75363,33.4085 42.15625,45.84375 L 206.9375,823 l -32,-22.46875 z m 116.15625,107.375 -53.75,34.8125 L 257,1085.8125 317.25,1012.9062 291.09375,907.90625 z M 177.9375,916.75 l 2.84375,109.9062 54.125,65.9376 L 220,948.90625 177.9375,916.75 z m 147.65625,129.6562 -67.875,44.6876 20.5625,149.6874 c 13.43966,-15.9812 57.99243,-68.8737 74.09375,-86.8124 l -26.78125,-107.5626 z m -144.1875,4.2188 2.5625,98.9375 64.9375,77.9063 -13.4375,-129.5313 -54.0625,-47.3125 z m 3.46875,132.8438 3.59375,138.6874 7.40625,9.2188 63.8125,0 -9.53125,-91.8125 -65.28125,-56.0937 z m 176.28125,5.8437 -82.4375,54.625 12,87.4375 70.21875,0 c 8.41698,-9.6237 18.39554,-21.0155 27.71875,-31.6562 l -27.5,-110.4063 z"
       transform="translate(-30.304575,90.696943)"
       id="rect3050"
       style="fill:#000080;fill-opacity:1" />
    <text
       x="801.05103"
       y="216.96606"
       id="text3012"
       xml:space="preserve"
       style="font-size:144px;font-style:normal;font-weight:normal;line-height:125%;letter-spacing:0px;word-spacing:0px;fill:#000000;fill-opacity:1;stroke:none;font-family:Sans"><tspan
         x="801.05103"
         y="216.96606"
         id="tspan3014"
         style="font-size:144px;font-style:normal;font-variant:normal;font-weight:normal;font-stretch:normal;font-family:Futura Lt BT;-inkscape-font-specification:Futura Lt BT">BOREAL</tspan></text>
    <flowRoot
       id="flowRoot3081"
       xml:space="preserve"
       style="font-size:40px;font-style:normal;font-weight:normal;line-height:125%;letter-spacing:0px;word-spacing:0px;fill:#000000;fill-opacity:1;stroke:none;font-family:Sans"><flowRegion
         id="flowRegion3083"><rect
           width="575.78693"
           height="292.94424"
           x="1074.8022"
           y="575.57019"
           id="rect3085" /></flowRegion><flowPara
         id="flowPara3087"></flowPara></flowRoot>    <text
       x="803.74768"
       y="393.3515"
       id="text3012-5"
       xml:space="preserve"
       style="font-size:144px;font-style:normal;font-weight:normal;line-height:125%;letter-spacing:0px;word-spacing:0px;fill:#000000;fill-opacity:1;stroke:none;font-family:Sans"><tspan
         x="803.74768"
         y="393.3515"
         id="tspan3014-5"
         style="font-size:144px;font-style:normal;font-variant:normal;font-weight:normal;font-stretch:normal;font-family:Futura Lt BT;-inkscape-font-specification:Futura Lt BT">ELECTRO</tspan></text>
    <text
       x="809.59283"
       y="569.75433"
       id="text3012-5-3"
       xml:space="preserve"
       style="font-size:144px;font-style:normal;font-weight:normal;line-height:125%;letter-spacing:0px;word-spacing:0px;fill:#000000;fill-opacity:1;stroke:none;font-family:Sans"><tspan
         x="809.59283"
         y="569.75433"
         id="tspan3014-5-0"
         style="font-size:144px;font-style:normal;font-variant:normal;font-weight:normal;font-stretch:normal;font-family:Futura Lt BT;-inkscape-font-specification:Futura Lt BT">ACOUSTIC</tspan></text>
    <text
       x="805.54614"
       y="742.86432"
       id="text3012-5-3-2"
       xml:space="preserve"
       style="font-size:144px;font-style:normal;font-weight:normal;line-height:125%;letter-spacing:0px;word-spacing:0px;fill:#000000;fill-opacity:1;stroke:none;font-family:Sans"><tspan
         x="805.54614"
         y="742.86432"
         id="tspan3014-5-0-1"
         style="font-size:144px;font-style:normal;font-variant:normal;font-weight:normal;font-stretch:normal;font-family:Futura Lt BT;-inkscape-font-specification:Futura Lt BT">MUSIC</tspan></text>
    <text
       x="807.45685"
       y="919.1488"
       id="text3012-5-3-2-5"
       xml:space="preserve"
       style="font-size:144px;font-style:normal;font-weight:normal;line-height:125%;letter-spacing:0px;word-spacing:0px;fill:#000000;fill-opacity:1;stroke:none;font-family:Sans"><tspan
         x="807.45685"
         y="919.1488"
         id="tspan3014-5-0-1-3"
         style="font-size:144px;font-style:normal;font-variant:normal;font-weight:normal;font-stretch:normal;font-family:Futura Lt BT;-inkscape-font-specification:Futura Lt BT">SOCIETY</tspan></text>
  </g>
</svg>
